<mxfile host="app.diagrams.net" agent="Mozilla/5.0 (Windows NT 10.0; Win64; x64) AppleWebKit/537.36 (KHTML, like Gecko) Chrome/132.0.0.0 Safari/537.36" version="26.0.8">
  <diagram name="Page-1" id="euM4_nox02ohcy6gQv_5">
    <mxGraphModel dx="794" dy="412" grid="1" gridSize="10" guides="1" tooltips="1" connect="1" arrows="1" fold="1" page="1" pageScale="1" pageWidth="850" pageHeight="1100" math="0" shadow="0">
      <root>
        <mxCell id="0" />
        <mxCell id="1" parent="0" />
        <mxCell id="2RD_5JFsLw0ljpb5iZyu-1" value="Dataframe Spark SQL" style="rounded=1;whiteSpace=wrap;html=1;" vertex="1" parent="1">
          <mxGeometry x="140" y="80" width="120" height="60" as="geometry" />
        </mxCell>
        <mxCell id="2RD_5JFsLw0ljpb5iZyu-2" value="Streaming" style="rounded=1;whiteSpace=wrap;html=1;" vertex="1" parent="1">
          <mxGeometry x="290" y="80" width="120" height="60" as="geometry" />
        </mxCell>
        <mxCell id="2RD_5JFsLw0ljpb5iZyu-3" value="ML Lib" style="rounded=1;whiteSpace=wrap;html=1;" vertex="1" parent="1">
          <mxGeometry x="430" y="80" width="120" height="60" as="geometry" />
        </mxCell>
        <mxCell id="2RD_5JFsLw0ljpb5iZyu-4" value="GraphX" style="rounded=1;whiteSpace=wrap;html=1;" vertex="1" parent="1">
          <mxGeometry x="570" y="80" width="120" height="60" as="geometry" />
        </mxCell>
        <mxCell id="2RD_5JFsLw0ljpb5iZyu-5" value="" style="endArrow=classic;html=1;rounded=0;entryX=0.5;entryY=0;entryDx=0;entryDy=0;" edge="1" parent="1">
          <mxGeometry width="50" height="50" relative="1" as="geometry">
            <mxPoint x="199.5" y="40" as="sourcePoint" />
            <mxPoint x="199.5" y="80" as="targetPoint" />
          </mxGeometry>
        </mxCell>
        <mxCell id="2RD_5JFsLw0ljpb5iZyu-6" value="" style="endArrow=classic;html=1;rounded=0;entryX=0.5;entryY=0;entryDx=0;entryDy=0;" edge="1" parent="1">
          <mxGeometry width="50" height="50" relative="1" as="geometry">
            <mxPoint x="350" y="40" as="sourcePoint" />
            <mxPoint x="350" y="80" as="targetPoint" />
          </mxGeometry>
        </mxCell>
        <mxCell id="2RD_5JFsLw0ljpb5iZyu-7" value="" style="endArrow=classic;html=1;rounded=0;entryX=0.5;entryY=0;entryDx=0;entryDy=0;" edge="1" parent="1">
          <mxGeometry width="50" height="50" relative="1" as="geometry">
            <mxPoint x="490" y="40" as="sourcePoint" />
            <mxPoint x="490" y="80" as="targetPoint" />
          </mxGeometry>
        </mxCell>
        <mxCell id="2RD_5JFsLw0ljpb5iZyu-8" value="" style="endArrow=classic;html=1;rounded=0;entryX=0.5;entryY=0;entryDx=0;entryDy=0;" edge="1" parent="1">
          <mxGeometry width="50" height="50" relative="1" as="geometry">
            <mxPoint x="630" y="40" as="sourcePoint" />
            <mxPoint x="630" y="80" as="targetPoint" />
          </mxGeometry>
        </mxCell>
        <mxCell id="2RD_5JFsLw0ljpb5iZyu-9" value="" style="shape=curlyBracket;whiteSpace=wrap;html=1;rounded=1;labelPosition=left;verticalLabelPosition=middle;align=right;verticalAlign=middle;" vertex="1" parent="1">
          <mxGeometry x="100" y="70" width="20" height="80" as="geometry" />
        </mxCell>
        <mxCell id="2RD_5JFsLw0ljpb5iZyu-10" value="&lt;font style=&quot;font-size: 17px;&quot;&gt;Libraries&lt;/font&gt;" style="text;html=1;align=center;verticalAlign=middle;resizable=0;points=[];autosize=1;strokeColor=none;fillColor=none;" vertex="1" parent="1">
          <mxGeometry y="30" width="90" height="30" as="geometry" />
        </mxCell>
        <mxCell id="2RD_5JFsLw0ljpb5iZyu-11" value="High level&lt;div&gt;&amp;nbsp;API&lt;/div&gt;" style="text;html=1;align=center;verticalAlign=middle;resizable=0;points=[];autosize=1;strokeColor=none;fillColor=none;" vertex="1" parent="1">
          <mxGeometry x="10" y="90" width="80" height="40" as="geometry" />
        </mxCell>
        <mxCell id="2RD_5JFsLw0ljpb5iZyu-13" value="" style="rounded=0;whiteSpace=wrap;html=1;" vertex="1" parent="1">
          <mxGeometry x="140" y="200" width="570" height="90" as="geometry" />
        </mxCell>
        <mxCell id="2RD_5JFsLw0ljpb5iZyu-14" value="Python" style="rounded=1;whiteSpace=wrap;html=1;" vertex="1" parent="1">
          <mxGeometry x="160" y="250" width="90" height="30" as="geometry" />
        </mxCell>
        <mxCell id="2RD_5JFsLw0ljpb5iZyu-15" value="Java" style="rounded=1;whiteSpace=wrap;html=1;" vertex="1" parent="1">
          <mxGeometry x="305" y="250" width="90" height="30" as="geometry" />
        </mxCell>
        <mxCell id="2RD_5JFsLw0ljpb5iZyu-16" value="R" style="rounded=1;whiteSpace=wrap;html=1;" vertex="1" parent="1">
          <mxGeometry x="460" y="250" width="90" height="30" as="geometry" />
        </mxCell>
        <mxCell id="2RD_5JFsLw0ljpb5iZyu-17" value="Scala" style="rounded=1;whiteSpace=wrap;html=1;" vertex="1" parent="1">
          <mxGeometry x="600" y="250" width="90" height="30" as="geometry" />
        </mxCell>
        <mxCell id="2RD_5JFsLw0ljpb5iZyu-18" value="Spark Core" style="text;html=1;align=center;verticalAlign=middle;whiteSpace=wrap;rounded=0;" vertex="1" parent="1">
          <mxGeometry x="365" y="210" width="120" height="30" as="geometry" />
        </mxCell>
        <mxCell id="2RD_5JFsLw0ljpb5iZyu-19" value="Core language" style="text;html=1;align=center;verticalAlign=middle;whiteSpace=wrap;rounded=0;" vertex="1" parent="1">
          <mxGeometry x="575" y="200" width="135" height="30" as="geometry" />
        </mxCell>
        <mxCell id="2RD_5JFsLw0ljpb5iZyu-22" value="" style="endArrow=classic;html=1;rounded=0;entryX=0.5;entryY=0;entryDx=0;entryDy=0;" edge="1" parent="1" source="2RD_5JFsLw0ljpb5iZyu-19" target="2RD_5JFsLw0ljpb5iZyu-17">
          <mxGeometry width="50" height="50" relative="1" as="geometry">
            <mxPoint x="480" y="380" as="sourcePoint" />
            <mxPoint x="530" y="330" as="targetPoint" />
          </mxGeometry>
        </mxCell>
        <mxCell id="2RD_5JFsLw0ljpb5iZyu-23" value="Resilient&amp;nbsp;&lt;div&gt;Distributed&amp;nbsp;&lt;/div&gt;&lt;div&gt;Dataset&amp;nbsp;&lt;/div&gt;&lt;div&gt;(RDD)&lt;/div&gt;" style="text;html=1;align=center;verticalAlign=middle;resizable=0;points=[];autosize=1;strokeColor=none;fillColor=none;" vertex="1" parent="1">
          <mxGeometry x="760" y="210" width="80" height="70" as="geometry" />
        </mxCell>
        <mxCell id="2RD_5JFsLw0ljpb5iZyu-24" value="&lt;font style=&quot;font-size: 14px;&quot;&gt;Spark Engine&lt;/font&gt;" style="rounded=0;whiteSpace=wrap;html=1;" vertex="1" parent="1">
          <mxGeometry x="140" y="330" width="570" height="30" as="geometry" />
        </mxCell>
        <mxCell id="2RD_5JFsLw0ljpb5iZyu-25" value="&lt;font style=&quot;font-size: 14px;&quot;&gt;Cluster manager&lt;/font&gt;" style="rounded=0;whiteSpace=wrap;html=1;" vertex="1" parent="1">
          <mxGeometry x="140" y="410" width="570" height="30" as="geometry" />
        </mxCell>
        <mxCell id="2RD_5JFsLw0ljpb5iZyu-26" value="" style="endArrow=classic;html=1;rounded=0;entryX=0.484;entryY=0.022;entryDx=0;entryDy=0;entryPerimeter=0;" edge="1" parent="1" target="2RD_5JFsLw0ljpb5iZyu-25">
          <mxGeometry width="50" height="50" relative="1" as="geometry">
            <mxPoint x="416" y="362" as="sourcePoint" />
            <mxPoint x="420" y="330" as="targetPoint" />
          </mxGeometry>
        </mxCell>
        <mxCell id="2RD_5JFsLw0ljpb5iZyu-50" value="Comp" style="ellipse;whiteSpace=wrap;html=1;" vertex="1" parent="1">
          <mxGeometry x="140" y="480" width="80" height="30" as="geometry" />
        </mxCell>
        <mxCell id="2RD_5JFsLw0ljpb5iZyu-51" value="Comp" style="ellipse;whiteSpace=wrap;html=1;" vertex="1" parent="1">
          <mxGeometry x="270" y="480" width="80" height="30" as="geometry" />
        </mxCell>
        <mxCell id="2RD_5JFsLw0ljpb5iZyu-52" value="Comp" style="ellipse;whiteSpace=wrap;html=1;" vertex="1" parent="1">
          <mxGeometry x="385" y="480" width="80" height="30" as="geometry" />
        </mxCell>
        <mxCell id="2RD_5JFsLw0ljpb5iZyu-53" value="Comp" style="ellipse;whiteSpace=wrap;html=1;" vertex="1" parent="1">
          <mxGeometry x="620" y="480" width="80" height="30" as="geometry" />
        </mxCell>
        <mxCell id="2RD_5JFsLw0ljpb5iZyu-54" value="Comp" style="ellipse;whiteSpace=wrap;html=1;" vertex="1" parent="1">
          <mxGeometry x="510" y="480" width="80" height="30" as="geometry" />
        </mxCell>
        <mxCell id="2RD_5JFsLw0ljpb5iZyu-55" value="YARN&lt;br&gt;MeSos&lt;br&gt;Kubernates&lt;div&gt;Standalone&lt;/div&gt;" style="text;html=1;align=center;verticalAlign=middle;resizable=0;points=[];autosize=1;strokeColor=none;fillColor=none;" vertex="1" parent="1">
          <mxGeometry x="760" y="390" width="80" height="70" as="geometry" />
        </mxCell>
        <mxCell id="2RD_5JFsLw0ljpb5iZyu-56" value="" style="endArrow=classic;html=1;rounded=0;entryX=0.025;entryY=0.21;entryDx=0;entryDy=0;entryPerimeter=0;exitX=1;exitY=0;exitDx=0;exitDy=0;" edge="1" parent="1" source="2RD_5JFsLw0ljpb5iZyu-25" target="2RD_5JFsLw0ljpb5iZyu-55">
          <mxGeometry width="50" height="50" relative="1" as="geometry">
            <mxPoint x="710" y="420" as="sourcePoint" />
            <mxPoint x="730" y="380" as="targetPoint" />
          </mxGeometry>
        </mxCell>
        <mxCell id="2RD_5JFsLw0ljpb5iZyu-57" value="" style="endArrow=classic;html=1;rounded=0;entryX=0.033;entryY=0.39;entryDx=0;entryDy=0;entryPerimeter=0;exitX=1;exitY=0.25;exitDx=0;exitDy=0;" edge="1" parent="1" source="2RD_5JFsLw0ljpb5iZyu-25" target="2RD_5JFsLw0ljpb5iZyu-55">
          <mxGeometry width="50" height="50" relative="1" as="geometry">
            <mxPoint x="720" y="420" as="sourcePoint" />
            <mxPoint x="775" y="405" as="targetPoint" />
          </mxGeometry>
        </mxCell>
        <mxCell id="2RD_5JFsLw0ljpb5iZyu-58" value="" style="endArrow=classic;html=1;rounded=0;entryX=0;entryY=0.61;entryDx=0;entryDy=0;entryPerimeter=0;exitX=1;exitY=0.5;exitDx=0;exitDy=0;" edge="1" parent="1" source="2RD_5JFsLw0ljpb5iZyu-25" target="2RD_5JFsLw0ljpb5iZyu-55">
          <mxGeometry width="50" height="50" relative="1" as="geometry">
            <mxPoint x="720" y="428" as="sourcePoint" />
            <mxPoint x="773" y="427" as="targetPoint" />
          </mxGeometry>
        </mxCell>
        <mxCell id="2RD_5JFsLw0ljpb5iZyu-59" value="" style="endArrow=classic;html=1;rounded=0;entryX=-0.042;entryY=0.8;entryDx=0;entryDy=0;entryPerimeter=0;exitX=1;exitY=0.75;exitDx=0;exitDy=0;" edge="1" parent="1" source="2RD_5JFsLw0ljpb5iZyu-25" target="2RD_5JFsLw0ljpb5iZyu-55">
          <mxGeometry width="50" height="50" relative="1" as="geometry">
            <mxPoint x="730" y="438" as="sourcePoint" />
            <mxPoint x="783" y="437" as="targetPoint" />
          </mxGeometry>
        </mxCell>
        <mxCell id="2RD_5JFsLw0ljpb5iZyu-60" value="" style="shape=curlyBracket;whiteSpace=wrap;html=1;rounded=1;labelPosition=left;verticalLabelPosition=middle;align=right;verticalAlign=middle;" vertex="1" parent="1">
          <mxGeometry x="90" y="190" width="20" height="170" as="geometry" />
        </mxCell>
        <mxCell id="2RD_5JFsLw0ljpb5iZyu-61" value="Low Level&amp;nbsp;&lt;div&gt;API&lt;/div&gt;" style="text;html=1;align=center;verticalAlign=middle;resizable=0;points=[];autosize=1;strokeColor=none;fillColor=none;" vertex="1" parent="1">
          <mxGeometry x="10" y="230" width="80" height="40" as="geometry" />
        </mxCell>
        <mxCell id="2RD_5JFsLw0ljpb5iZyu-62" value="20GB * 4&amp;nbsp;&lt;span style=&quot;background-color: transparent; color: light-dark(rgb(0, 0, 0), rgb(255, 255, 255));&quot;&gt;=&lt;/span&gt;&lt;div&gt;&lt;span style=&quot;background-color: transparent; color: light-dark(rgb(0, 0, 0), rgb(255, 255, 255));&quot;&gt;&amp;nbsp;80 GB (Executor)&lt;/span&gt;&lt;div&gt;+&lt;/div&gt;&lt;div&gt;20 GB (Driver)&lt;/div&gt;&lt;div&gt;= 100 GB&lt;/div&gt;&lt;div&gt;&lt;br&gt;&lt;/div&gt;&lt;/div&gt;" style="text;html=1;align=center;verticalAlign=middle;resizable=0;points=[];autosize=1;strokeColor=none;fillColor=none;" vertex="1" parent="1">
          <mxGeometry y="350" width="120" height="100" as="geometry" />
        </mxCell>
      </root>
    </mxGraphModel>
  </diagram>
</mxfile>
